# xmcd CD database file
#
# Track frame offsets:
#	150
#	49930
#	117485
#	138730
#	182544
#
# Disc length: 2797 seconds
#
# Revision: 0
# Processed by: cddbd v1.5.2PL0 Copyright (c) Steve Scherf et al.
# Submitted via: CDex 1.51
#
DISCID=470aeb05
DTITLE=The River - Vessels Into White Tides
DYEAR=2019
DGENRE=Doom Metal
TTITLE0=Vessels
TTITLE1=Into White
TTITLE2=Open
TTITLE3=Passing
TTITLE4=Tides
EXTD=YEAR: 2019
EXTT0=
EXTT1=
EXTT2=
EXTT3=
EXTT4=
PLAYORDER=
